solid OpenSCAD_Model
  facet normal -1 0 0
    outer loop
      vertex -5.5 2.5 -2.5
      vertex -5.5 0.5 1.5
      vertex -5.5 2.5 2.5
    endloop
  endfacet
  facet normal -1 0 0
    outer loop
      vertex -5.5 2.5 -2.5
      vertex -5.5 -0.5 1.5
      vertex -5.5 0.5 1.5
    endloop
  endfacet
  facet normal -1 0 0
    outer loop
      vertex -5.5 -2.5 -2.5
      vertex -5.5 -0.5 1.5
      vertex -5.5 2.5 -2.5
    endloop
  endfacet
  facet normal -1 0 0
    outer loop
      vertex -5.5 -2.5 2.5
      vertex -5.5 -0.5 1.5
      vertex -5.5 -2.5 -2.5
    endloop
  endfacet
  facet normal -1 0 0
    outer loop
      vertex -5.5 -0.5 1.5
      vertex -5.5 -2.5 2.5
      vertex -5.5 -0.5 2.5
    endloop
  endfacet
  facet normal -1 -0 0
    outer loop
      vertex -5.5 2.5 2.5
      vertex -5.5 0.5 1.5
      vertex -5.5 0.5 2.5
    endloop
  endfacet
  facet normal 0 0 1
    outer loop
      vertex -4 -0.5 2.5
      vertex -5.5 -0.5 2.5
      vertex -4 -1 2.5
    endloop
  endfacet
  facet normal 0 0 1
    outer loop
      vertex 4 -1 2.5
      vertex 5.5 -0.5 2.5
      vertex 4 -0.5 2.5
    endloop
  endfacet
  facet normal 0 0 1
    outer loop
      vertex 5.5 -0.5 2.5
      vertex 4 -1 2.5
      vertex 5.5 -2.5 2.5
    endloop
  endfacet
  facet normal -0 0 1
    outer loop
      vertex -4 -1 2.5
      vertex 5.5 -2.5 2.5
      vertex 4 -1 2.5
    endloop
  endfacet
  facet normal 0 0 1
    outer loop
      vertex -4 -1 2.5
      vertex -5.5 -2.5 2.5
      vertex 5.5 -2.5 2.5
    endloop
  endfacet
  facet normal 0 0 1
    outer loop
      vertex -5.5 -2.5 2.5
      vertex -4 -1 2.5
      vertex -5.5 -0.5 2.5
    endloop
  endfacet
  facet normal 0 0 1
    outer loop
      vertex 5.5 2.5 2.5
      vertex 4 1 2.5
      vertex 5.5 0.5 2.5
    endloop
  endfacet
  facet normal 0 0 1
    outer loop
      vertex 5.5 2.5 2.5
      vertex -4 1 2.5
      vertex 4 1 2.5
    endloop
  endfacet
  facet normal -0 0 1
    outer loop
      vertex -5.5 2.5 2.5
      vertex -4 1 2.5
      vertex 5.5 2.5 2.5
    endloop
  endfacet
  facet normal 0 0 1
    outer loop
      vertex -5.5 0.5 2.5
      vertex -4 1 2.5
      vertex -5.5 2.5 2.5
    endloop
  endfacet
  facet normal 0 0 1
    outer loop
      vertex -4 1 2.5
      vertex -5.5 0.5 2.5
      vertex -4 0.5 2.5
    endloop
  endfacet
  facet normal 0 0 1
    outer loop
      vertex 5.5 0.5 2.5
      vertex 4 1 2.5
      vertex 4 0.5 2.5
    endloop
  endfacet
  facet normal 1 0 0
    outer loop
      vertex 5.5 -0.5 2.5
      vertex 5.5 -2.5 2.5
      vertex 5.5 -0.5 1.5
    endloop
  endfacet
  facet normal 1 0 0
    outer loop
      vertex 5.5 0.5 1.5
      vertex 5.5 2.5 2.5
      vertex 5.5 0.5 2.5
    endloop
  endfacet
  facet normal 1 0 0
    outer loop
      vertex 5.5 2.5 2.5
      vertex 5.5 0.5 1.5
      vertex 5.5 2.5 -2.5
    endloop
  endfacet
  facet normal 1 -0 0
    outer loop
      vertex 5.5 -0.5 1.5
      vertex 5.5 2.5 -2.5
      vertex 5.5 0.5 1.5
    endloop
  endfacet
  facet normal 1 0 0
    outer loop
      vertex 5.5 -2.5 -2.5
      vertex 5.5 -0.5 1.5
      vertex 5.5 -2.5 2.5
    endloop
  endfacet
  facet normal 1 0 0
    outer loop
      vertex 5.5 -0.5 1.5
      vertex 5.5 -2.5 -2.5
      vertex 5.5 2.5 -2.5
    endloop
  endfacet
  facet normal 0 0 -1
    outer loop
      vertex -5.5 -2.5 -2.5
      vertex 5.5 2.5 -2.5
      vertex 5.5 -2.5 -2.5
    endloop
  endfacet
  facet normal -0 0 -1
    outer loop
      vertex 5.5 2.5 -2.5
      vertex -5.5 -2.5 -2.5
      vertex -5.5 2.5 -2.5
    endloop
  endfacet
  facet normal 0 -1 0
    outer loop
      vertex -5.5 -2.5 -2.5
      vertex 5.5 -2.5 2.5
      vertex -5.5 -2.5 2.5
    endloop
  endfacet
  facet normal 0 -1 -0
    outer loop
      vertex 5.5 -2.5 2.5
      vertex -5.5 -2.5 -2.5
      vertex 5.5 -2.5 -2.5
    endloop
  endfacet
  facet normal 0 1 -0
    outer loop
      vertex 5.5 2.5 -2.5
      vertex -5.5 2.5 2.5
      vertex 5.5 2.5 2.5
    endloop
  endfacet
  facet normal 0 1 0
    outer loop
      vertex -5.5 2.5 2.5
      vertex 5.5 2.5 -2.5
      vertex -5.5 2.5 -2.5
    endloop
  endfacet
  facet normal 0 -1 0
    outer loop
      vertex 4 0.5 1.5
      vertex 5.5 0.5 2.5
      vertex 4 0.5 2.5
    endloop
  endfacet
  facet normal 0 -1 -0
    outer loop
      vertex 5.5 0.5 2.5
      vertex 4 0.5 1.5
      vertex 5.5 0.5 1.5
    endloop
  endfacet
  facet normal 0 -1 0
    outer loop
      vertex -5.5 0.5 1.5
      vertex -4 0.5 2.5
      vertex -5.5 0.5 2.5
    endloop
  endfacet
  facet normal 0 -1 -0
    outer loop
      vertex -4 0.5 2.5
      vertex -5.5 0.5 1.5
      vertex -4 0.5 1.5
    endloop
  endfacet
  facet normal -0 0 1
    outer loop
      vertex -5.5 0.5 1.5
      vertex -4 -0.5 1.5
      vertex -4 0.5 1.5
    endloop
  endfacet
  facet normal 0 0 1
    outer loop
      vertex -4 -0.5 1.5
      vertex -5.5 0.5 1.5
      vertex -5.5 -0.5 1.5
    endloop
  endfacet
  facet normal -0 0 1
    outer loop
      vertex 4 0.5 1.5
      vertex 5.5 -0.5 1.5
      vertex 5.5 0.5 1.5
    endloop
  endfacet
  facet normal 0 0 1
    outer loop
      vertex 5.5 -0.5 1.5
      vertex 4 0.5 1.5
      vertex 4 -0.5 1.5
    endloop
  endfacet
  facet normal 0 1 -0
    outer loop
      vertex 5.5 -0.5 1.5
      vertex 4 -0.5 2.5
      vertex 5.5 -0.5 2.5
    endloop
  endfacet
  facet normal 0 1 0
    outer loop
      vertex 4 -0.5 2.5
      vertex 5.5 -0.5 1.5
      vertex 4 -0.5 1.5
    endloop
  endfacet
  facet normal 0 1 -0
    outer loop
      vertex -4 -0.5 1.5
      vertex -5.5 -0.5 2.5
      vertex -4 -0.5 2.5
    endloop
  endfacet
  facet normal 0 1 0
    outer loop
      vertex -5.5 -0.5 2.5
      vertex -4 -0.5 1.5
      vertex -5.5 -0.5 1.5
    endloop
  endfacet
  facet normal 1 0 0
    outer loop
      vertex -4 -0.5 2.5
      vertex -4 -1 2.5
      vertex -4 -0.5 1.5
    endloop
  endfacet
  facet normal 1 0 0
    outer loop
      vertex -4 0.5 1.5
      vertex -4 1 2.5
      vertex -4 0.5 2.5
    endloop
  endfacet
  facet normal 1 0 0
    outer loop
      vertex -4 1 2.5
      vertex -4 0.5 1.5
      vertex -4 1 1
    endloop
  endfacet
  facet normal 1 -0 0
    outer loop
      vertex -4 -0.5 1.5
      vertex -4 1 1
      vertex -4 0.5 1.5
    endloop
  endfacet
  facet normal 1 0 0
    outer loop
      vertex -4 -0.5 1.5
      vertex -4 -1 1
      vertex -4 1 1
    endloop
  endfacet
  facet normal 1 0 0
    outer loop
      vertex -4 -1 1
      vertex -4 -0.5 1.5
      vertex -4 -1 2.5
    endloop
  endfacet
  facet normal -1 0 0
    outer loop
      vertex 4 1 1
      vertex 4 0.5 1.5
      vertex 4 1 2.5
    endloop
  endfacet
  facet normal -1 0 0
    outer loop
      vertex 4 1 1
      vertex 4 -0.5 1.5
      vertex 4 0.5 1.5
    endloop
  endfacet
  facet normal -1 0 0
    outer loop
      vertex 4 -1 1
      vertex 4 -0.5 1.5
      vertex 4 1 1
    endloop
  endfacet
  facet normal -1 0 0
    outer loop
      vertex 4 -1 2.5
      vertex 4 -0.5 1.5
      vertex 4 -1 1
    endloop
  endfacet
  facet normal -1 0 0
    outer loop
      vertex 4 -0.5 1.5
      vertex 4 -1 2.5
      vertex 4 -0.5 2.5
    endloop
  endfacet
  facet normal -1 -0 0
    outer loop
      vertex 4 1 2.5
      vertex 4 0.5 1.5
      vertex 4 0.5 2.5
    endloop
  endfacet
  facet normal -0 0 1
    outer loop
      vertex -4 1 1
      vertex 4 -1 1
      vertex 4 1 1
    endloop
  endfacet
  facet normal 0 0 1
    outer loop
      vertex 4 -1 1
      vertex -4 1 1
      vertex -4 -1 1
    endloop
  endfacet
  facet normal 0 1 -0
    outer loop
      vertex 4 -1 1
      vertex -4 -1 2.5
      vertex 4 -1 2.5
    endloop
  endfacet
  facet normal 0 1 0
    outer loop
      vertex -4 -1 2.5
      vertex 4 -1 1
      vertex -4 -1 1
    endloop
  endfacet
  facet normal 0 -1 0
    outer loop
      vertex -4 1 1
      vertex 4 1 2.5
      vertex -4 1 2.5
    endloop
  endfacet
  facet normal 0 -1 -0
    outer loop
      vertex 4 1 2.5
      vertex -4 1 1
      vertex 4 1 1
    endloop
  endfacet
endsolid OpenSCAD_Model
