solid OpenSCAD_Model
  facet normal 0.994521 -0 0.104534
    outer loop
      vertex 3.05671 10 18.6497
      vertex 3.125 12 18
      vertex 3.05671 12 18.6497
    endloop
  endfacet
  facet normal 0.994521 0 0.104534
    outer loop
      vertex 3.125 12 18
      vertex 3.05671 10 18.6497
      vertex 3.125 10 18
    endloop
  endfacet
  facet normal -0.994521 0 0.104534
    outer loop
      vertex -3.125 10 18
      vertex -3.05671 12 18.6497
      vertex -3.125 12 18
    endloop
  endfacet
  facet normal -0.994521 0 0.104534
    outer loop
      vertex -3.05671 12 18.6497
      vertex -3.125 10 18
      vertex -3.05671 10 18.6497
    endloop
  endfacet
  facet normal -0 0 1
    outer loop
      vertex -0.326651 12 21.1079
      vertex 0.326651 10 21.1079
      vertex 0.326651 12 21.1079
    endloop
  endfacet
  facet normal 0 0 1
    outer loop
      vertex 0.326651 10 21.1079
      vertex -0.326651 12 21.1079
      vertex -0.326651 10 21.1079
    endloop
  endfacet
  facet normal 0 0 -1
    outer loop
      vertex -0.326651 10 14.8921
      vertex 0.326651 12 14.8921
      vertex 0.326651 10 14.8921
    endloop
  endfacet
  facet normal -0 0 -1
    outer loop
      vertex 0.326651 12 14.8921
      vertex -0.326651 10 14.8921
      vertex -0.326651 12 14.8921
    endloop
  endfacet
  facet normal 0.587786 0 0.809017
    outer loop
      vertex 1.5625 12 20.7063
      vertex 2.09103 10 20.3223
      vertex 2.09103 12 20.3223
    endloop
  endfacet
  facet normal 0.587786 0 0.809017
    outer loop
      vertex 2.09103 10 20.3223
      vertex 1.5625 12 20.7063
      vertex 1.5625 10 20.7063
    endloop
  endfacet
  facet normal -0.587786 0 0.809017
    outer loop
      vertex -2.09103 12 20.3223
      vertex -1.5625 10 20.7063
      vertex -1.5625 12 20.7063
    endloop
  endfacet
  facet normal -0.587786 0 0.809017
    outer loop
      vertex -1.5625 10 20.7063
      vertex -2.09103 12 20.3223
      vertex -2.09103 10 20.3223
    endloop
  endfacet
  facet normal -0.406708 0 0.913558
    outer loop
      vertex -1.5625 12 20.7063
      vertex -0.965677 10 20.972
      vertex -0.965677 12 20.972
    endloop
  endfacet
  facet normal -0.406708 0 0.913558
    outer loop
      vertex -0.965677 10 20.972
      vertex -1.5625 12 20.7063
      vertex -1.5625 10 20.7063
    endloop
  endfacet
  facet normal 0.865997 -0 0.500049
    outer loop
      vertex 2.52818 10 19.8368
      vertex 2.85483 12 19.2711
      vertex 2.52818 12 19.8368
    endloop
  endfacet
  facet normal 0.865997 0 0.500049
    outer loop
      vertex 2.85483 12 19.2711
      vertex 2.52818 10 19.8368
      vertex 2.85483 10 19.2711
    endloop
  endfacet
  facet normal 0.951068 -0 0.308982
    outer loop
      vertex 2.85483 10 19.2711
      vertex 3.05671 12 18.6497
      vertex 2.85483 12 19.2711
    endloop
  endfacet
  facet normal 0.951068 0 0.308982
    outer loop
      vertex 3.05671 12 18.6497
      vertex 2.85483 10 19.2711
      vertex 3.05671 10 18.6497
    endloop
  endfacet
  facet normal 0.743142 -0 0.669134
    outer loop
      vertex 2.09103 10 20.3223
      vertex 2.52818 12 19.8368
      vertex 2.09103 12 20.3223
    endloop
  endfacet
  facet normal 0.743142 0 0.669134
    outer loop
      vertex 2.52818 12 19.8368
      vertex 2.09103 10 20.3223
      vertex 2.52818 10 19.8368
    endloop
  endfacet
  facet normal 0.208015 0 0.978126
    outer loop
      vertex 0.326651 12 21.1079
      vertex 0.965677 10 20.972
      vertex 0.965677 12 20.972
    endloop
  endfacet
  facet normal 0.208015 0 0.978126
    outer loop
      vertex 0.965677 10 20.972
      vertex 0.326651 12 21.1079
      vertex 0.326651 10 21.1079
    endloop
  endfacet
  facet normal 0.406708 0 0.913558
    outer loop
      vertex 0.965677 12 20.972
      vertex 1.5625 10 20.7063
      vertex 1.5625 12 20.7063
    endloop
  endfacet
  facet normal 0.406708 0 0.913558
    outer loop
      vertex 1.5625 10 20.7063
      vertex 0.965677 12 20.972
      vertex 0.965677 10 20.972
    endloop
  endfacet
  facet normal -0.865997 0 0.500049
    outer loop
      vertex -2.85483 10 19.2711
      vertex -2.52818 12 19.8368
      vertex -2.85483 12 19.2711
    endloop
  endfacet
  facet normal -0.865997 0 0.500049
    outer loop
      vertex -2.52818 12 19.8368
      vertex -2.85483 10 19.2711
      vertex -2.52818 10 19.8368
    endloop
  endfacet
  facet normal -0.743142 0 0.669134
    outer loop
      vertex -2.52818 10 19.8368
      vertex -2.09103 12 20.3223
      vertex -2.52818 12 19.8368
    endloop
  endfacet
  facet normal -0.743142 0 0.669134
    outer loop
      vertex -2.09103 12 20.3223
      vertex -2.52818 10 19.8368
      vertex -2.09103 10 20.3223
    endloop
  endfacet
  facet normal -0.951068 0 0.308982
    outer loop
      vertex -3.05671 10 18.6497
      vertex -2.85483 12 19.2711
      vertex -3.05671 12 18.6497
    endloop
  endfacet
  facet normal -0.951068 0 0.308982
    outer loop
      vertex -2.85483 12 19.2711
      vertex -3.05671 10 18.6497
      vertex -2.85483 10 19.2711
    endloop
  endfacet
  facet normal 0 1 0
    outer loop
      vertex 0 10 22
      vertex 0.965677 10 20.972
      vertex 0.326651 10 21.1079
    endloop
  endfacet
  facet normal 0 1 0
    outer loop
      vertex 0 10 22
      vertex 1.5625 10 20.7063
      vertex 0.965677 10 20.972
    endloop
  endfacet
  facet normal 0 1 0
    outer loop
      vertex 0 10 22
      vertex 2.09103 10 20.3223
      vertex 1.5625 10 20.7063
    endloop
  endfacet
  facet normal 0 1 0
    outer loop
      vertex 0.326651 10 14.8921
      vertex 0.169858 10 1.6161
      vertex -0.326651 10 14.8921
    endloop
  endfacet
  facet normal 0 1 -0
    outer loop
      vertex 0.502152 10 1.54547
      vertex 0.326651 10 14.8921
      vertex 0.965677 10 15.0279
    endloop
  endfacet
  facet normal 0 1 0
    outer loop
      vertex 0.8125 10 1.40729
      vertex 0.965677 10 15.0279
      vertex 1.5625 10 15.2937
    endloop
  endfacet
  facet normal 0 1 0
    outer loop
      vertex 1.08734 10 1.20761
      vertex 1.5625 10 15.2937
      vertex 2.09103 10 15.6777
    endloop
  endfacet
  facet normal 0 1 0
    outer loop
      vertex 1.31465 10 0.955151
      vertex 2.09103 10 15.6777
      vertex 2.52818 10 16.1632
    endloop
  endfacet
  facet normal 0 1 0
    outer loop
      vertex 1.48451 10 0.660947
      vertex 2.52818 10 16.1632
      vertex 2.85483 10 16.7289
    endloop
  endfacet
  facet normal 0 1 0
    outer loop
      vertex 35 10 -3
      vertex 2.85483 10 16.7289
      vertex 3.05671 10 17.3503
    endloop
  endfacet
  facet normal 0 1 0
    outer loop
      vertex 0.326651 10 14.8921
      vertex 0.502152 10 1.54547
      vertex 0.169858 10 1.6161
    endloop
  endfacet
  facet normal 0 1 0
    outer loop
      vertex 0.965677 10 15.0279
      vertex 0.8125 10 1.40729
      vertex 0.502152 10 1.54547
    endloop
  endfacet
  facet normal 0 1 0
    outer loop
      vertex 1.5625 10 15.2937
      vertex 1.08734 10 1.20761
      vertex 0.8125 10 1.40729
    endloop
  endfacet
  facet normal 0 1 0
    outer loop
      vertex 2.09103 10 15.6777
      vertex 1.31465 10 0.955151
      vertex 1.08734 10 1.20761
    endloop
  endfacet
  facet normal 0 1 0
    outer loop
      vertex 2.52818 10 16.1632
      vertex 1.48451 10 0.660947
      vertex 1.31465 10 0.955151
    endloop
  endfacet
  facet normal 0 1 0
    outer loop
      vertex 35 10 -3
      vertex 3.05671 10 17.3503
      vertex 3.125 10 18
    endloop
  endfacet
  facet normal 0 1 0
    outer loop
      vertex 2.85483 10 16.7289
      vertex 35 10 -3
      vertex 1.48451 10 0.660947
    endloop
  endfacet
  facet normal 0 1 0
    outer loop
      vertex 1.48451 10 0.660947
      vertex 35 10 -3
      vertex 1.58949 10 0.337856
    endloop
  endfacet
  facet normal 0 1 0
    outer loop
      vertex 0.169858 10 -1.6161
      vertex 35 10 -3
      vertex -0.169858 10 -1.6161
    endloop
  endfacet
  facet normal 0 1 0
    outer loop
      vertex 0.502152 10 -1.54547
      vertex 35 10 -3
      vertex 0.169858 10 -1.6161
    endloop
  endfacet
  facet normal 0 1 0
    outer loop
      vertex 0.8125 10 -1.40729
      vertex 35 10 -3
      vertex 0.502152 10 -1.54547
    endloop
  endfacet
  facet normal 0 1 0
    outer loop
      vertex 1.08734 10 -1.20761
      vertex 35 10 -3
      vertex 0.8125 10 -1.40729
    endloop
  endfacet
  facet normal 0 1 0
    outer loop
      vertex 1.31465 10 -0.955152
      vertex 35 10 -3
      vertex 1.08734 10 -1.20761
    endloop
  endfacet
  facet normal 0 1 0
    outer loop
      vertex 1.48451 10 -0.660948
      vertex 35 10 -3
      vertex 1.31465 10 -0.955152
    endloop
  endfacet
  facet normal 0 1 0
    outer loop
      vertex 1.58949 10 -0.337857
      vertex 35 10 -3
      vertex 1.48451 10 -0.660948
    endloop
  endfacet
  facet normal 0 1 0
    outer loop
      vertex 1.625 10 0
      vertex 35 10 -3
      vertex 1.58949 10 -0.337857
    endloop
  endfacet
  facet normal 0 1 0
    outer loop
      vertex 1.58949 10 0.337856
      vertex 35 10 -3
      vertex 1.625 10 0
    endloop
  endfacet
  facet normal 0 1 0
    outer loop
      vertex 3.05671 10 18.6497
      vertex 35 10 -3
      vertex 3.125 10 18
    endloop
  endfacet
  facet normal 0 1 0
    outer loop
      vertex 2.85483 10 19.2711
      vertex 35 10 -3
      vertex 3.05671 10 18.6497
    endloop
  endfacet
  facet normal 0 1 0
    outer loop
      vertex 2.52818 10 19.8368
      vertex 35 10 -3
      vertex 2.85483 10 19.2711
    endloop
  endfacet
  facet normal 0 1 0
    outer loop
      vertex 2.09103 10 20.3223
      vertex 35 10 -3
      vertex 2.52818 10 19.8368
    endloop
  endfacet
  facet normal 0 1 0
    outer loop
      vertex 35 10 -3
      vertex 2.09103 10 20.3223
      vertex 0 10 22
    endloop
  endfacet
  facet normal 0 1 0
    outer loop
      vertex -0.326651 10 21.1079
      vertex 0 10 22
      vertex 0.326651 10 21.1079
    endloop
  endfacet
  facet normal 0 1 0
    outer loop
      vertex -0.965677 10 20.972
      vertex 0 10 22
      vertex -0.326651 10 21.1079
    endloop
  endfacet
  facet normal 0 1 0
    outer loop
      vertex -1.5625 10 20.7063
      vertex 0 10 22
      vertex -0.965677 10 20.972
    endloop
  endfacet
  facet normal 0 1 0
    outer loop
      vertex -2.09103 10 20.3223
      vertex 0 10 22
      vertex -1.5625 10 20.7063
    endloop
  endfacet
  facet normal 0 1 -0
    outer loop
      vertex -0.169858 10 1.6161
      vertex -0.326651 10 14.8921
      vertex 0.169858 10 1.6161
    endloop
  endfacet
  facet normal 0 1 0
    outer loop
      vertex -0.502152 10 1.54547
      vertex -0.326651 10 14.8921
      vertex -0.169858 10 1.6161
    endloop
  endfacet
  facet normal 0 1 0
    outer loop
      vertex -0.326651 10 14.8921
      vertex -0.502152 10 1.54547
      vertex -0.965677 10 15.0279
    endloop
  endfacet
  facet normal 0 1 -0
    outer loop
      vertex -0.8125 10 1.40729
      vertex -0.965677 10 15.0279
      vertex -0.502152 10 1.54547
    endloop
  endfacet
  facet normal 0 1 0
    outer loop
      vertex -0.965677 10 15.0279
      vertex -0.8125 10 1.40729
      vertex -1.5625 10 15.2937
    endloop
  endfacet
  facet normal 0 1 -0
    outer loop
      vertex -1.08734 10 1.20761
      vertex -1.5625 10 15.2937
      vertex -0.8125 10 1.40729
    endloop
  endfacet
  facet normal 0 1 0
    outer loop
      vertex -1.5625 10 15.2937
      vertex -1.08734 10 1.20761
      vertex -2.09103 10 15.6777
    endloop
  endfacet
  facet normal 0 1 -0
    outer loop
      vertex -1.31465 10 0.955151
      vertex -2.09103 10 15.6777
      vertex -1.08734 10 1.20761
    endloop
  endfacet
  facet normal 0 1 0
    outer loop
      vertex -2.09103 10 15.6777
      vertex -1.31465 10 0.955151
      vertex -2.52818 10 16.1632
    endloop
  endfacet
  facet normal 0 1 -0
    outer loop
      vertex -1.48451 10 0.660947
      vertex -2.52818 10 16.1632
      vertex -1.31465 10 0.955151
    endloop
  endfacet
  facet normal 0 1 0
    outer loop
      vertex -2.52818 10 16.1632
      vertex -1.48451 10 0.660947
      vertex -2.85483 10 16.7289
    endloop
  endfacet
  facet normal 0 1 0
    outer loop
      vertex -35 10 -3
      vertex -2.85483 10 16.7289
      vertex -1.48451 10 0.660947
    endloop
  endfacet
  facet normal 0 1 0
    outer loop
      vertex -2.85483 10 16.7289
      vertex -35 10 -3
      vertex -3.05671 10 17.3503
    endloop
  endfacet
  facet normal 0 1 0
    outer loop
      vertex -35 10 -3
      vertex -1.48451 10 0.660947
      vertex -1.58949 10 0.337856
    endloop
  endfacet
  facet normal 0 1 0
    outer loop
      vertex -35 10 -3
      vertex -1.58949 10 0.337856
      vertex -1.625 10 0
    endloop
  endfacet
  facet normal 0 1 -0
    outer loop
      vertex -2.09103 10 20.3223
      vertex -35 10 -3
      vertex 0 10 22
    endloop
  endfacet
  facet normal 0 1 -0
    outer loop
      vertex -2.52818 10 19.8368
      vertex -35 10 -3
      vertex -2.09103 10 20.3223
    endloop
  endfacet
  facet normal 0 1 -0
    outer loop
      vertex -2.85483 10 19.2711
      vertex -35 10 -3
      vertex -2.52818 10 19.8368
    endloop
  endfacet
  facet normal 0 1 -0
    outer loop
      vertex -3.05671 10 18.6497
      vertex -35 10 -3
      vertex -2.85483 10 19.2711
    endloop
  endfacet
  facet normal 0 1 -0
    outer loop
      vertex -3.125 10 18
      vertex -35 10 -3
      vertex -3.05671 10 18.6497
    endloop
  endfacet
  facet normal 0 1 0
    outer loop
      vertex -3.05671 10 17.3503
      vertex -35 10 -3
      vertex -3.125 10 18
    endloop
  endfacet
  facet normal 0 1 0
    outer loop
      vertex -1.58949 10 -0.337857
      vertex -35 10 -3
      vertex -1.625 10 0
    endloop
  endfacet
  facet normal 0 1 0
    outer loop
      vertex -1.48451 10 -0.660948
      vertex -35 10 -3
      vertex -1.58949 10 -0.337857
    endloop
  endfacet
  facet normal 0 1 0
    outer loop
      vertex -1.31465 10 -0.955152
      vertex -35 10 -3
      vertex -1.48451 10 -0.660948
    endloop
  endfacet
  facet normal 0 1 0
    outer loop
      vertex -1.08734 10 -1.20761
      vertex -35 10 -3
      vertex -1.31465 10 -0.955152
    endloop
  endfacet
  facet normal 0 1 0
    outer loop
      vertex -0.8125 10 -1.40729
      vertex -35 10 -3
      vertex -1.08734 10 -1.20761
    endloop
  endfacet
  facet normal 0 1 0
    outer loop
      vertex -0.502152 10 -1.54547
      vertex -35 10 -3
      vertex -0.8125 10 -1.40729
    endloop
  endfacet
  facet normal 0 1 0
    outer loop
      vertex -0.169858 10 -1.6161
      vertex -35 10 -3
      vertex -0.502152 10 -1.54547
    endloop
  endfacet
  facet normal 0 1 0
    outer loop
      vertex -35 10 -3
      vertex -0.169858 10 -1.6161
      vertex 35 10 -3
    endloop
  endfacet
  facet normal 0 1 0
    outer loop
      vertex 0.656661 10 20.021
      vertex -0.222122 10 20.1134
      vertex 0.222122 10 20.1134
    endloop
  endfacet
  facet normal 0 1 0
    outer loop
      vertex 0.656661 10 20.021
      vertex -0.656661 10 20.021
      vertex -0.222122 10 20.1134
    endloop
  endfacet
  facet normal 0 1 0
    outer loop
      vertex 1.0625 10 19.8403
      vertex -0.656661 10 20.021
      vertex 0.656661 10 20.021
    endloop
  endfacet
  facet normal 0 1 0
    outer loop
      vertex 1.0625 10 19.8403
      vertex -1.0625 10 19.8403
      vertex -0.656661 10 20.021
    endloop
  endfacet
  facet normal 0 1 0
    outer loop
      vertex 1.4219 10 19.5792
      vertex -1.0625 10 19.8403
      vertex 1.0625 10 19.8403
    endloop
  endfacet
  facet normal 0 1 0
    outer loop
      vertex 1.4219 10 19.5792
      vertex -1.4219 10 19.5792
      vertex -1.0625 10 19.8403
    endloop
  endfacet
  facet normal 0 1 0
    outer loop
      vertex 1.71916 10 19.249
      vertex -1.4219 10 19.5792
      vertex 1.4219 10 19.5792
    endloop
  endfacet
  facet normal 0 1 0
    outer loop
      vertex 1.71916 10 19.249
      vertex -1.71916 10 19.249
      vertex -1.4219 10 19.5792
    endloop
  endfacet
  facet normal 0 1 0
    outer loop
      vertex 1.94128 10 18.8643
      vertex -1.71916 10 19.249
      vertex 1.71916 10 19.249
    endloop
  endfacet
  facet normal 0 1 0
    outer loop
      vertex 1.94128 10 18.8643
      vertex -1.94128 10 18.8643
      vertex -1.71916 10 19.249
    endloop
  endfacet
  facet normal 0 1 0
    outer loop
      vertex 2.07856 10 18.4418
      vertex -1.94128 10 18.8643
      vertex 1.94128 10 18.8643
    endloop
  endfacet
  facet normal 0 1 0
    outer loop
      vertex 2.07856 10 18.4418
      vertex -2.07856 10 18.4418
      vertex -1.94128 10 18.8643
    endloop
  endfacet
  facet normal 0 1 0
    outer loop
      vertex 2.125 10 18
      vertex -2.07856 10 18.4418
      vertex 2.07856 10 18.4418
    endloop
  endfacet
  facet normal 0 1 0
    outer loop
      vertex 2.125 10 18
      vertex -2.125 10 18
      vertex -2.07856 10 18.4418
    endloop
  endfacet
  facet normal 0 1 -0
    outer loop
      vertex 2.07856 10 17.5582
      vertex -2.125 10 18
      vertex 2.125 10 18
    endloop
  endfacet
  facet normal 0 1 0
    outer loop
      vertex 2.07856 10 17.5582
      vertex -2.07856 10 17.5582
      vertex -2.125 10 18
    endloop
  endfacet
  facet normal 0 1 -0
    outer loop
      vertex 1.94128 10 17.1357
      vertex -2.07856 10 17.5582
      vertex 2.07856 10 17.5582
    endloop
  endfacet
  facet normal 0 1 0
    outer loop
      vertex 1.94128 10 17.1357
      vertex -1.94128 10 17.1357
      vertex -2.07856 10 17.5582
    endloop
  endfacet
  facet normal 0 1 -0
    outer loop
      vertex 1.71916 10 16.751
      vertex -1.94128 10 17.1357
      vertex 1.94128 10 17.1357
    endloop
  endfacet
  facet normal 0 1 0
    outer loop
      vertex 1.71916 10 16.751
      vertex -1.71916 10 16.751
      vertex -1.94128 10 17.1357
    endloop
  endfacet
  facet normal 0 1 -0
    outer loop
      vertex 1.4219 10 16.4208
      vertex -1.71916 10 16.751
      vertex 1.71916 10 16.751
    endloop
  endfacet
  facet normal 0 1 0
    outer loop
      vertex 1.4219 10 16.4208
      vertex -1.4219 10 16.4208
      vertex -1.71916 10 16.751
    endloop
  endfacet
  facet normal 0 1 -0
    outer loop
      vertex 1.0625 10 16.1597
      vertex -1.4219 10 16.4208
      vertex 1.4219 10 16.4208
    endloop
  endfacet
  facet normal 0 1 0
    outer loop
      vertex 1.0625 10 16.1597
      vertex -1.0625 10 16.1597
      vertex -1.4219 10 16.4208
    endloop
  endfacet
  facet normal 0 1 -0
    outer loop
      vertex 0.656661 10 15.979
      vertex -1.0625 10 16.1597
      vertex 1.0625 10 16.1597
    endloop
  endfacet
  facet normal 0 1 0
    outer loop
      vertex 0.656661 10 15.979
      vertex -0.656661 10 15.979
      vertex -1.0625 10 16.1597
    endloop
  endfacet
  facet normal 0 1 -0
    outer loop
      vertex 0.222122 10 15.8866
      vertex -0.656661 10 15.979
      vertex 0.656661 10 15.979
    endloop
  endfacet
  facet normal 0 1 0
    outer loop
      vertex -0.656661 10 15.979
      vertex 0.222122 10 15.8866
      vertex -0.222122 10 15.8866
    endloop
  endfacet
  facet normal -0.208015 0 0.978126
    outer loop
      vertex -0.965677 12 20.972
      vertex -0.326651 10 21.1079
      vertex -0.326651 12 21.1079
    endloop
  endfacet
  facet normal -0.208015 0 0.978126
    outer loop
      vertex -0.326651 10 21.1079
      vertex -0.965677 12 20.972
      vertex -0.965677 10 20.972
    endloop
  endfacet
  facet normal 0.994521 0 -0.104534
    outer loop
      vertex 3.125 10 18
      vertex 3.05671 12 17.3503
      vertex 3.125 12 18
    endloop
  endfacet
  facet normal 0.994521 0 -0.104534
    outer loop
      vertex 3.05671 12 17.3503
      vertex 3.125 10 18
      vertex 3.05671 10 17.3503
    endloop
  endfacet
  facet normal 0 1 0
    outer loop
      vertex 0.222122 12 20.1134
      vertex 0.326651 12 21.1079
      vertex 0.965677 12 20.972
    endloop
  endfacet
  facet normal 0 1 0
    outer loop
      vertex 0.326651 12 21.1079
      vertex 0.222122 12 20.1134
      vertex -0.326651 12 21.1079
    endloop
  endfacet
  facet normal 0 1 0
    outer loop
      vertex 0.656661 12 20.021
      vertex 0.965677 12 20.972
      vertex 1.5625 12 20.7063
    endloop
  endfacet
  facet normal 0 1 -0
    outer loop
      vertex -0.222122 12 20.1134
      vertex -0.326651 12 21.1079
      vertex 0.222122 12 20.1134
    endloop
  endfacet
  facet normal 0 1 0
    outer loop
      vertex 1.0625 12 19.8403
      vertex 1.5625 12 20.7063
      vertex 2.09103 12 20.3223
    endloop
  endfacet
  facet normal 0 1 0
    outer loop
      vertex -0.326651 12 21.1079
      vertex -0.222122 12 20.1134
      vertex -0.965677 12 20.972
    endloop
  endfacet
  facet normal 0 1 -0
    outer loop
      vertex -0.656661 12 20.021
      vertex -0.965677 12 20.972
      vertex -0.222122 12 20.1134
    endloop
  endfacet
  facet normal 0 1 0
    outer loop
      vertex 0.965677 12 20.972
      vertex 0.656661 12 20.021
      vertex 0.222122 12 20.1134
    endloop
  endfacet
  facet normal 0 1 0
    outer loop
      vertex 1.5625 12 20.7063
      vertex 1.0625 12 19.8403
      vertex 0.656661 12 20.021
    endloop
  endfacet
  facet normal 0 1 0
    outer loop
      vertex 1.4219 12 19.5792
      vertex 2.09103 12 20.3223
      vertex 2.52818 12 19.8368
    endloop
  endfacet
  facet normal 0 1 0
    outer loop
      vertex 2.09103 12 20.3223
      vertex 1.4219 12 19.5792
      vertex 1.0625 12 19.8403
    endloop
  endfacet
  facet normal 0 1 0
    outer loop
      vertex 1.71916 12 19.249
      vertex 2.52818 12 19.8368
      vertex 2.85483 12 19.2711
    endloop
  endfacet
  facet normal 0 1 0
    outer loop
      vertex 2.52818 12 19.8368
      vertex 1.71916 12 19.249
      vertex 1.4219 12 19.5792
    endloop
  endfacet
  facet normal 0 1 0
    outer loop
      vertex 2.85483 12 19.2711
      vertex 1.94128 12 18.8643
      vertex 1.71916 12 19.249
    endloop
  endfacet
  facet normal 0 1 0
    outer loop
      vertex 3.05671 12 18.6497
      vertex 1.94128 12 18.8643
      vertex 2.85483 12 19.2711
    endloop
  endfacet
  facet normal 0 1 0
    outer loop
      vertex 3.05671 12 18.6497
      vertex 2.07856 12 18.4418
      vertex 1.94128 12 18.8643
    endloop
  endfacet
  facet normal 0 1 0
    outer loop
      vertex 3.125 12 18
      vertex 2.07856 12 18.4418
      vertex 3.05671 12 18.6497
    endloop
  endfacet
  facet normal 0 1 0
    outer loop
      vertex 3.125 12 18
      vertex 2.125 12 18
      vertex 2.07856 12 18.4418
    endloop
  endfacet
  facet normal 0 1 0
    outer loop
      vertex 3.125 12 18
      vertex 2.07856 12 17.5582
      vertex 2.125 12 18
    endloop
  endfacet
  facet normal 0 1 -0
    outer loop
      vertex 3.05671 12 17.3503
      vertex 2.07856 12 17.5582
      vertex 3.125 12 18
    endloop
  endfacet
  facet normal 0 1 0
    outer loop
      vertex 3.05671 12 17.3503
      vertex 1.94128 12 17.1357
      vertex 2.07856 12 17.5582
    endloop
  endfacet
  facet normal 0 1 -0
    outer loop
      vertex 2.85483 12 16.7289
      vertex 1.94128 12 17.1357
      vertex 3.05671 12 17.3503
    endloop
  endfacet
  facet normal 0 1 0
    outer loop
      vertex 1.94128 12 17.1357
      vertex 2.85483 12 16.7289
      vertex 1.71916 12 16.751
    endloop
  endfacet
  facet normal 0 1 -0
    outer loop
      vertex 2.52818 12 16.1632
      vertex 1.71916 12 16.751
      vertex 2.85483 12 16.7289
    endloop
  endfacet
  facet normal 0 1 0
    outer loop
      vertex 1.71916 12 16.751
      vertex 2.52818 12 16.1632
      vertex 1.4219 12 16.4208
    endloop
  endfacet
  facet normal 0 1 -0
    outer loop
      vertex 2.09103 12 15.6777
      vertex 1.4219 12 16.4208
      vertex 2.52818 12 16.1632
    endloop
  endfacet
  facet normal 0 1 0
    outer loop
      vertex 1.4219 12 16.4208
      vertex 2.09103 12 15.6777
      vertex 1.0625 12 16.1597
    endloop
  endfacet
  facet normal 0 1 -0
    outer loop
      vertex 1.5625 12 15.2937
      vertex 1.0625 12 16.1597
      vertex 2.09103 12 15.6777
    endloop
  endfacet
  facet normal 0 1 -0
    outer loop
      vertex 0.965677 12 15.0279
      vertex 0.656661 12 15.979
      vertex 1.5625 12 15.2937
    endloop
  endfacet
  facet normal 0 1 0
    outer loop
      vertex 1.0625 12 16.1597
      vertex 1.5625 12 15.2937
      vertex 0.656661 12 15.979
    endloop
  endfacet
  facet normal 0 1 0
    outer loop
      vertex -0.965677 12 20.972
      vertex -0.656661 12 20.021
      vertex -1.5625 12 20.7063
    endloop
  endfacet
  facet normal 0 1 -0
    outer loop
      vertex -1.0625 12 19.8403
      vertex -1.5625 12 20.7063
      vertex -0.656661 12 20.021
    endloop
  endfacet
  facet normal 0 1 0
    outer loop
      vertex -1.5625 12 20.7063
      vertex -1.0625 12 19.8403
      vertex -2.09103 12 20.3223
    endloop
  endfacet
  facet normal 0 1 -0
    outer loop
      vertex -1.4219 12 19.5792
      vertex -2.09103 12 20.3223
      vertex -1.0625 12 19.8403
    endloop
  endfacet
  facet normal 0 1 0
    outer loop
      vertex -2.09103 12 20.3223
      vertex -1.4219 12 19.5792
      vertex -2.52818 12 19.8368
    endloop
  endfacet
  facet normal 0 1 -0
    outer loop
      vertex -1.71916 12 19.249
      vertex -2.52818 12 19.8368
      vertex -1.4219 12 19.5792
    endloop
  endfacet
  facet normal 0 1 0
    outer loop
      vertex -2.52818 12 19.8368
      vertex -1.71916 12 19.249
      vertex -2.85483 12 19.2711
    endloop
  endfacet
  facet normal 0 1 -0
    outer loop
      vertex -1.94128 12 18.8643
      vertex -2.85483 12 19.2711
      vertex -1.71916 12 19.249
    endloop
  endfacet
  facet normal 0 1 0
    outer loop
      vertex -1.94128 12 18.8643
      vertex -3.05671 12 18.6497
      vertex -2.85483 12 19.2711
    endloop
  endfacet
  facet normal 0 1 -0
    outer loop
      vertex -2.07856 12 18.4418
      vertex -3.05671 12 18.6497
      vertex -1.94128 12 18.8643
    endloop
  endfacet
  facet normal 0 1 -0
    outer loop
      vertex -2.125 12 18
      vertex -3.05671 12 18.6497
      vertex -2.07856 12 18.4418
    endloop
  endfacet
  facet normal 0 1 0
    outer loop
      vertex -2.125 12 18
      vertex -3.125 12 18
      vertex -3.05671 12 18.6497
    endloop
  endfacet
  facet normal 0 1 0
    outer loop
      vertex -2.07856 12 17.5582
      vertex -3.125 12 18
      vertex -2.125 12 18
    endloop
  endfacet
  facet normal 0 1 0
    outer loop
      vertex -2.07856 12 17.5582
      vertex -3.05671 12 17.3503
      vertex -3.125 12 18
    endloop
  endfacet
  facet normal 0 1 0
    outer loop
      vertex -1.94128 12 17.1357
      vertex -3.05671 12 17.3503
      vertex -2.07856 12 17.5582
    endloop
  endfacet
  facet normal 0 1 0
    outer loop
      vertex -2.85483 12 16.7289
      vertex -1.94128 12 17.1357
      vertex -1.71916 12 16.751
    endloop
  endfacet
  facet normal 0 1 0
    outer loop
      vertex -1.94128 12 17.1357
      vertex -2.85483 12 16.7289
      vertex -3.05671 12 17.3503
    endloop
  endfacet
  facet normal 0 1 0
    outer loop
      vertex -2.52818 12 16.1632
      vertex -1.71916 12 16.751
      vertex -1.4219 12 16.4208
    endloop
  endfacet
  facet normal 0 1 0
    outer loop
      vertex -1.71916 12 16.751
      vertex -2.52818 12 16.1632
      vertex -2.85483 12 16.7289
    endloop
  endfacet
  facet normal 0 1 0
    outer loop
      vertex -2.09103 12 15.6777
      vertex -1.4219 12 16.4208
      vertex -1.0625 12 16.1597
    endloop
  endfacet
  facet normal 0 1 0
    outer loop
      vertex -1.5625 12 15.2937
      vertex -1.0625 12 16.1597
      vertex -0.656661 12 15.979
    endloop
  endfacet
  facet normal 0 1 0
    outer loop
      vertex -0.965677 12 15.0279
      vertex -0.656661 12 15.979
      vertex -0.222122 12 15.8866
    endloop
  endfacet
  facet normal 0 1 0
    outer loop
      vertex -1.4219 12 16.4208
      vertex -2.09103 12 15.6777
      vertex -2.52818 12 16.1632
    endloop
  endfacet
  facet normal 0 1 0
    outer loop
      vertex 0.656661 12 15.979
      vertex 0.965677 12 15.0279
      vertex 0.222122 12 15.8866
    endloop
  endfacet
  facet normal 0 1 -0
    outer loop
      vertex 0.326651 12 14.8921
      vertex 0.222122 12 15.8866
      vertex 0.965677 12 15.0279
    endloop
  endfacet
  facet normal 0 1 0
    outer loop
      vertex -1.0625 12 16.1597
      vertex -1.5625 12 15.2937
      vertex -2.09103 12 15.6777
    endloop
  endfacet
  facet normal 0 1 0
    outer loop
      vertex 0.222122 12 15.8866
      vertex 0.326651 12 14.8921
      vertex -0.222122 12 15.8866
    endloop
  endfacet
  facet normal 0 1 0
    outer loop
      vertex -0.656661 12 15.979
      vertex -0.965677 12 15.0279
      vertex -1.5625 12 15.2937
    endloop
  endfacet
  facet normal 0 1 0
    outer loop
      vertex -0.326651 12 14.8921
      vertex -0.222122 12 15.8866
      vertex 0.326651 12 14.8921
    endloop
  endfacet
  facet normal 0 1 0
    outer loop
      vertex -0.222122 12 15.8866
      vertex -0.326651 12 14.8921
      vertex -0.965677 12 15.0279
    endloop
  endfacet
  facet normal 0.743142 0 -0.669134
    outer loop
      vertex 2.52818 10 16.1632
      vertex 2.09103 12 15.6777
      vertex 2.52818 12 16.1632
    endloop
  endfacet
  facet normal 0.743142 0 -0.669134
    outer loop
      vertex 2.09103 12 15.6777
      vertex 2.52818 10 16.1632
      vertex 2.09103 10 15.6777
    endloop
  endfacet
  facet normal 0.951068 0 -0.308982
    outer loop
      vertex 3.05671 10 17.3503
      vertex 2.85483 12 16.7289
      vertex 3.05671 12 17.3503
    endloop
  endfacet
  facet normal 0.951068 0 -0.308982
    outer loop
      vertex 2.85483 12 16.7289
      vertex 3.05671 10 17.3503
      vertex 2.85483 10 16.7289
    endloop
  endfacet
  facet normal 0.865997 0 -0.500049
    outer loop
      vertex 2.85483 10 16.7289
      vertex 2.52818 12 16.1632
      vertex 2.85483 12 16.7289
    endloop
  endfacet
  facet normal 0.865997 0 -0.500049
    outer loop
      vertex 2.52818 12 16.1632
      vertex 2.85483 10 16.7289
      vertex 2.52818 10 16.1632
    endloop
  endfacet
  facet normal -0.587786 0 -0.809017
    outer loop
      vertex -2.09103 10 15.6777
      vertex -1.5625 12 15.2937
      vertex -1.5625 10 15.2937
    endloop
  endfacet
  facet normal -0.587786 0 -0.809017
    outer loop
      vertex -1.5625 12 15.2937
      vertex -2.09103 10 15.6777
      vertex -2.09103 12 15.6777
    endloop
  endfacet
  facet normal -0.865997 0 -0.500049
    outer loop
      vertex -2.52818 10 16.1632
      vertex -2.85483 12 16.7289
      vertex -2.52818 12 16.1632
    endloop
  endfacet
  facet normal -0.865997 -0 -0.500049
    outer loop
      vertex -2.85483 12 16.7289
      vertex -2.52818 10 16.1632
      vertex -2.85483 10 16.7289
    endloop
  endfacet
  facet normal 0.587786 0 -0.809017
    outer loop
      vertex 1.5625 10 15.2937
      vertex 2.09103 12 15.6777
      vertex 2.09103 10 15.6777
    endloop
  endfacet
  facet normal 0.587786 0 -0.809017
    outer loop
      vertex 2.09103 12 15.6777
      vertex 1.5625 10 15.2937
      vertex 1.5625 12 15.2937
    endloop
  endfacet
  facet normal -0.207869 0 -0.978157
    outer loop
      vertex -0.965677 10 15.0279
      vertex -0.326651 12 14.8921
      vertex -0.326651 10 14.8921
    endloop
  endfacet
  facet normal -0.207869 0 -0.978157
    outer loop
      vertex -0.326651 12 14.8921
      vertex -0.965677 10 15.0279
      vertex -0.965677 12 15.0279
    endloop
  endfacet
  facet normal -0.406835 0 -0.913502
    outer loop
      vertex -1.5625 10 15.2937
      vertex -0.965677 12 15.0279
      vertex -0.965677 10 15.0279
    endloop
  endfacet
  facet normal -0.406835 0 -0.913502
    outer loop
      vertex -0.965677 12 15.0279
      vertex -1.5625 10 15.2937
      vertex -1.5625 12 15.2937
    endloop
  endfacet
  facet normal -0.743142 0 -0.669134
    outer loop
      vertex -2.09103 10 15.6777
      vertex -2.52818 12 16.1632
      vertex -2.09103 12 15.6777
    endloop
  endfacet
  facet normal -0.743142 -0 -0.669134
    outer loop
      vertex -2.52818 12 16.1632
      vertex -2.09103 10 15.6777
      vertex -2.52818 10 16.1632
    endloop
  endfacet
  facet normal -0.951068 0 -0.308982
    outer loop
      vertex -2.85483 10 16.7289
      vertex -3.05671 12 17.3503
      vertex -2.85483 12 16.7289
    endloop
  endfacet
  facet normal -0.951068 -0 -0.308982
    outer loop
      vertex -3.05671 12 17.3503
      vertex -2.85483 10 16.7289
      vertex -3.05671 10 17.3503
    endloop
  endfacet
  facet normal -0.994521 0 -0.104534
    outer loop
      vertex -3.05671 10 17.3503
      vertex -3.125 12 18
      vertex -3.05671 12 17.3503
    endloop
  endfacet
  facet normal -0.994521 -0 -0.104534
    outer loop
      vertex -3.125 12 18
      vertex -3.05671 10 17.3503
      vertex -3.125 10 18
    endloop
  endfacet
  facet normal 0.406835 0 -0.913502
    outer loop
      vertex 0.965677 10 15.0279
      vertex 1.5625 12 15.2937
      vertex 1.5625 10 15.2937
    endloop
  endfacet
  facet normal 0.406835 0 -0.913502
    outer loop
      vertex 1.5625 12 15.2937
      vertex 0.965677 10 15.0279
      vertex 0.965677 12 15.0279
    endloop
  endfacet
  facet normal 0.207869 0 -0.978157
    outer loop
      vertex 0.326651 10 14.8921
      vertex 0.965677 12 15.0279
      vertex 0.965677 10 15.0279
    endloop
  endfacet
  facet normal 0.207869 0 -0.978157
    outer loop
      vertex 0.965677 12 15.0279
      vertex 0.326651 10 14.8921
      vertex 0.326651 12 14.8921
    endloop
  endfacet
  facet normal -0.994521 0 -0.104539
    outer loop
      vertex 2.125 10 18
      vertex 2.07856 12 18.4418
      vertex 2.125 12 18
    endloop
  endfacet
  facet normal -0.994521 -0 -0.104539
    outer loop
      vertex 2.07856 12 18.4418
      vertex 2.125 10 18
      vertex 2.07856 10 18.4418
    endloop
  endfacet
  facet normal 0.994521 0 -0.104539
    outer loop
      vertex -2.07856 10 18.4418
      vertex -2.125 12 18
      vertex -2.07856 12 18.4418
    endloop
  endfacet
  facet normal 0.994521 0 -0.104539
    outer loop
      vertex -2.125 12 18
      vertex -2.07856 10 18.4418
      vertex -2.125 10 18
    endloop
  endfacet
  facet normal 0 0 -1
    outer loop
      vertex -0.222122 10 20.1134
      vertex 0.222122 12 20.1134
      vertex 0.222122 10 20.1134
    endloop
  endfacet
  facet normal -0 0 -1
    outer loop
      vertex 0.222122 12 20.1134
      vertex -0.222122 10 20.1134
      vertex -0.222122 12 20.1134
    endloop
  endfacet
  facet normal -0 0 1
    outer loop
      vertex -0.222122 12 15.8866
      vertex 0.222122 10 15.8866
      vertex 0.222122 12 15.8866
    endloop
  endfacet
  facet normal 0 0 1
    outer loop
      vertex 0.222122 10 15.8866
      vertex -0.222122 12 15.8866
      vertex -0.222122 10 15.8866
    endloop
  endfacet
  facet normal -0.743205 0 -0.669064
    outer loop
      vertex 1.71916 10 19.249
      vertex 1.4219 12 19.5792
      vertex 1.71916 12 19.249
    endloop
  endfacet
  facet normal -0.743205 -0 -0.669064
    outer loop
      vertex 1.4219 12 19.5792
      vertex 1.71916 10 19.249
      vertex 1.4219 10 19.5792
    endloop
  endfacet
  facet normal 0.743205 0 -0.669064
    outer loop
      vertex -1.4219 10 19.5792
      vertex -1.71916 12 19.249
      vertex -1.4219 12 19.5792
    endloop
  endfacet
  facet normal 0.743205 0 -0.669064
    outer loop
      vertex -1.71916 12 19.249
      vertex -1.4219 10 19.5792
      vertex -1.71916 10 19.249
    endloop
  endfacet
  facet normal 0.866012 0 -0.500023
    outer loop
      vertex -1.71916 10 19.249
      vertex -1.94128 12 18.8643
      vertex -1.71916 12 19.249
    endloop
  endfacet
  facet normal 0.866012 0 -0.500023
    outer loop
      vertex -1.94128 12 18.8643
      vertex -1.71916 10 19.249
      vertex -1.94128 10 18.8643
    endloop
  endfacet
  facet normal 0.406753 0 -0.913538
    outer loop
      vertex -1.0625 10 19.8403
      vertex -0.656661 12 20.021
      vertex -0.656661 10 20.021
    endloop
  endfacet
  facet normal 0.406753 0 -0.913538
    outer loop
      vertex -0.656661 12 20.021
      vertex -1.0625 10 19.8403
      vertex -1.0625 12 19.8403
    endloop
  endfacet
  facet normal -0.951056 0 0.30902
    outer loop
      vertex 1.94128 10 17.1357
      vertex 2.07856 12 17.5582
      vertex 1.94128 12 17.1357
    endloop
  endfacet
  facet normal -0.951056 0 0.30902
    outer loop
      vertex 2.07856 12 17.5582
      vertex 1.94128 10 17.1357
      vertex 2.07856 10 17.5582
    endloop
  endfacet
  facet normal -0.866012 0 -0.500023
    outer loop
      vertex 1.94128 10 18.8643
      vertex 1.71916 12 19.249
      vertex 1.94128 12 18.8643
    endloop
  endfacet
  facet normal -0.866012 -0 -0.500023
    outer loop
      vertex 1.71916 12 19.249
      vertex 1.94128 10 18.8643
      vertex 1.71916 10 19.249
    endloop
  endfacet
  facet normal -0.951056 0 -0.30902
    outer loop
      vertex 2.07856 10 18.4418
      vertex 1.94128 12 18.8643
      vertex 2.07856 12 18.4418
    endloop
  endfacet
  facet normal -0.951056 -0 -0.30902
    outer loop
      vertex 1.94128 12 18.8643
      vertex 2.07856 10 18.4418
      vertex 1.94128 10 18.8643
    endloop
  endfacet
  facet normal -0.406753 0 -0.913538
    outer loop
      vertex 0.656661 10 20.021
      vertex 1.0625 12 19.8403
      vertex 1.0625 10 19.8403
    endloop
  endfacet
  facet normal -0.406753 0 -0.913538
    outer loop
      vertex 1.0625 12 19.8403
      vertex 0.656661 10 20.021
      vertex 0.656661 12 20.021
    endloop
  endfacet
  facet normal -0.207989 0 -0.978131
    outer loop
      vertex 0.222122 10 20.1134
      vertex 0.656661 12 20.021
      vertex 0.656661 10 20.021
    endloop
  endfacet
  facet normal -0.207989 0 -0.978131
    outer loop
      vertex 0.656661 12 20.021
      vertex 0.222122 10 20.1134
      vertex 0.222122 12 20.1134
    endloop
  endfacet
  facet normal -0.587757 0 -0.809038
    outer loop
      vertex 1.0625 10 19.8403
      vertex 1.4219 12 19.5792
      vertex 1.4219 10 19.5792
    endloop
  endfacet
  facet normal -0.587757 0 -0.809038
    outer loop
      vertex 1.4219 12 19.5792
      vertex 1.0625 10 19.8403
      vertex 1.0625 12 19.8403
    endloop
  endfacet
  facet normal 0.951056 0 -0.30902
    outer loop
      vertex -1.94128 10 18.8643
      vertex -2.07856 12 18.4418
      vertex -1.94128 12 18.8643
    endloop
  endfacet
  facet normal 0.951056 0 -0.30902
    outer loop
      vertex -2.07856 12 18.4418
      vertex -1.94128 10 18.8643
      vertex -2.07856 10 18.4418
    endloop
  endfacet
  facet normal 0.587757 0 -0.809038
    outer loop
      vertex -1.4219 10 19.5792
      vertex -1.0625 12 19.8403
      vertex -1.0625 10 19.8403
    endloop
  endfacet
  facet normal 0.587757 0 -0.809038
    outer loop
      vertex -1.0625 12 19.8403
      vertex -1.4219 10 19.5792
      vertex -1.4219 12 19.5792
    endloop
  endfacet
  facet normal 0.207989 0 -0.978131
    outer loop
      vertex -0.656661 10 20.021
      vertex -0.222122 12 20.1134
      vertex -0.222122 10 20.1134
    endloop
  endfacet
  facet normal 0.207989 0 -0.978131
    outer loop
      vertex -0.222122 12 20.1134
      vertex -0.656661 10 20.021
      vertex -0.656661 12 20.021
    endloop
  endfacet
  facet normal -0.994521 0 0.104539
    outer loop
      vertex 2.07856 10 17.5582
      vertex 2.125 12 18
      vertex 2.07856 12 17.5582
    endloop
  endfacet
  facet normal -0.994521 0 0.104539
    outer loop
      vertex 2.125 12 18
      vertex 2.07856 10 17.5582
      vertex 2.125 10 18
    endloop
  endfacet
  facet normal -0.866012 0 0.500023
    outer loop
      vertex 1.71916 10 16.751
      vertex 1.94128 12 17.1357
      vertex 1.71916 12 16.751
    endloop
  endfacet
  facet normal -0.866012 0 0.500023
    outer loop
      vertex 1.94128 12 17.1357
      vertex 1.71916 10 16.751
      vertex 1.94128 10 17.1357
    endloop
  endfacet
  facet normal 0.866012 -0 0.500023
    outer loop
      vertex -1.94128 10 17.1357
      vertex -1.71916 12 16.751
      vertex -1.94128 12 17.1357
    endloop
  endfacet
  facet normal 0.866012 0 0.500023
    outer loop
      vertex -1.71916 12 16.751
      vertex -1.94128 10 17.1357
      vertex -1.71916 10 16.751
    endloop
  endfacet
  facet normal 0.994521 -0 0.104539
    outer loop
      vertex -2.125 10 18
      vertex -2.07856 12 17.5582
      vertex -2.125 12 18
    endloop
  endfacet
  facet normal 0.994521 0 0.104539
    outer loop
      vertex -2.07856 12 17.5582
      vertex -2.125 10 18
      vertex -2.07856 10 17.5582
    endloop
  endfacet
  facet normal -0.207989 0 0.978131
    outer loop
      vertex 0.222122 12 15.8866
      vertex 0.656661 10 15.979
      vertex 0.656661 12 15.979
    endloop
  endfacet
  facet normal -0.207989 0 0.978131
    outer loop
      vertex 0.656661 10 15.979
      vertex 0.222122 12 15.8866
      vertex 0.222122 10 15.8866
    endloop
  endfacet
  facet normal -0.587757 0 0.809038
    outer loop
      vertex 1.0625 12 16.1597
      vertex 1.4219 10 16.4208
      vertex 1.4219 12 16.4208
    endloop
  endfacet
  facet normal -0.587757 0 0.809038
    outer loop
      vertex 1.4219 10 16.4208
      vertex 1.0625 12 16.1597
      vertex 1.0625 10 16.1597
    endloop
  endfacet
  facet normal 0.743205 -0 0.669064
    outer loop
      vertex -1.71916 10 16.751
      vertex -1.4219 12 16.4208
      vertex -1.71916 12 16.751
    endloop
  endfacet
  facet normal 0.743205 0 0.669064
    outer loop
      vertex -1.4219 12 16.4208
      vertex -1.71916 10 16.751
      vertex -1.4219 10 16.4208
    endloop
  endfacet
  facet normal 0.951056 -0 0.30902
    outer loop
      vertex -2.07856 10 17.5582
      vertex -1.94128 12 17.1357
      vertex -2.07856 12 17.5582
    endloop
  endfacet
  facet normal 0.951056 0 0.30902
    outer loop
      vertex -1.94128 12 17.1357
      vertex -2.07856 10 17.5582
      vertex -1.94128 10 17.1357
    endloop
  endfacet
  facet normal -0.406753 0 0.913538
    outer loop
      vertex 0.656661 12 15.979
      vertex 1.0625 10 16.1597
      vertex 1.0625 12 16.1597
    endloop
  endfacet
  facet normal -0.406753 0 0.913538
    outer loop
      vertex 1.0625 10 16.1597
      vertex 0.656661 12 15.979
      vertex 0.656661 10 15.979
    endloop
  endfacet
  facet normal -0.743205 0 0.669064
    outer loop
      vertex 1.4219 10 16.4208
      vertex 1.71916 12 16.751
      vertex 1.4219 12 16.4208
    endloop
  endfacet
  facet normal -0.743205 0 0.669064
    outer loop
      vertex 1.71916 12 16.751
      vertex 1.4219 10 16.4208
      vertex 1.71916 10 16.751
    endloop
  endfacet
  facet normal 0.406753 0 0.913538
    outer loop
      vertex -1.0625 12 16.1597
      vertex -0.656661 10 15.979
      vertex -0.656661 12 15.979
    endloop
  endfacet
  facet normal 0.406753 0 0.913538
    outer loop
      vertex -0.656661 10 15.979
      vertex -1.0625 12 16.1597
      vertex -1.0625 10 16.1597
    endloop
  endfacet
  facet normal 0.587757 0 0.809038
    outer loop
      vertex -1.4219 12 16.4208
      vertex -1.0625 10 16.1597
      vertex -1.0625 12 16.1597
    endloop
  endfacet
  facet normal 0.587757 0 0.809038
    outer loop
      vertex -1.0625 10 16.1597
      vertex -1.4219 12 16.4208
      vertex -1.4219 10 16.4208
    endloop
  endfacet
  facet normal 0.207989 0 0.978131
    outer loop
      vertex -0.656661 12 15.979
      vertex -0.222122 10 15.8866
      vertex -0.222122 12 15.8866
    endloop
  endfacet
  facet normal 0.207989 0 0.978131
    outer loop
      vertex -0.222122 10 15.8866
      vertex -0.656661 12 15.979
      vertex -0.656661 10 15.979
    endloop
  endfacet
  facet normal 0 0 -1
    outer loop
      vertex -35 -10 -3
      vertex 35 10 -3
      vertex 35 -10 -3
    endloop
  endfacet
  facet normal -0 0 -1
    outer loop
      vertex 35 10 -3
      vertex -35 -10 -3
      vertex -35 10 -3
    endloop
  endfacet
  facet normal 0.581238 0 0.813733
    outer loop
      vertex 35 10 -3
      vertex 32.2 8 -1
      vertex 35 -10 -3
    endloop
  endfacet
  facet normal 0.581238 1.32158e-15 0.813733
    outer loop
      vertex 0 10 22
      vertex 32.2 8 -1
      vertex 35 10 -3
    endloop
  endfacet
  facet normal 0.581192 0 0.813766
    outer loop
      vertex 0.5 8 21.6429
      vertex 0 10 22
      vertex 0.5 -8 21.6429
    endloop
  endfacet
  facet normal 0.581239 1.77122e-05 0.813733
    outer loop
      vertex 32.2 8 -1
      vertex 0 10 22
      vertex 0.5 8 21.6429
    endloop
  endfacet
  facet normal 0.581238 -0 0.813733
    outer loop
      vertex 32.2 -8 -1
      vertex 35 -10 -3
      vertex 32.2 8 -1
    endloop
  endfacet
  facet normal 0.581239 -1.77122e-05 0.813733
    outer loop
      vertex 0 -10 22
      vertex 32.2 -8 -1
      vertex 0.5 -8 21.6429
    endloop
  endfacet
  facet normal 0.581238 -8.25989e-16 0.813733
    outer loop
      vertex 32.2 -8 -1
      vertex 0 -10 22
      vertex 35 -10 -3
    endloop
  endfacet
  facet normal 0.581192 -0 0.813766
    outer loop
      vertex 0 -10 22
      vertex 0.5 -8 21.6429
      vertex 0 10 22
    endloop
  endfacet
  facet normal 0 -1 0
    outer loop
      vertex 0 -10 22
      vertex -0.502152 -10 1.54547
      vertex -0.169858 -10 1.6161
    endloop
  endfacet
  facet normal 0 -1 0
    outer loop
      vertex 0 -10 22
      vertex -0.8125 -10 1.40729
      vertex -0.502152 -10 1.54547
    endloop
  endfacet
  facet normal 0 -1 0
    outer loop
      vertex 0 -10 22
      vertex -1.08734 -10 1.20761
      vertex -0.8125 -10 1.40729
    endloop
  endfacet
  facet normal 0 -1 0
    outer loop
      vertex 0 -10 22
      vertex -1.31465 -10 0.955151
      vertex -1.08734 -10 1.20761
    endloop
  endfacet
  facet normal 0 -1 0
    outer loop
      vertex -35 -10 -3
      vertex -1.31465 -10 0.955151
      vertex 0 -10 22
    endloop
  endfacet
  facet normal 0 -1 0
    outer loop
      vertex -1.31465 -10 0.955151
      vertex -35 -10 -3
      vertex -1.48451 -10 0.660947
    endloop
  endfacet
  facet normal 0 -1 0
    outer loop
      vertex -1.48451 -10 0.660947
      vertex -35 -10 -3
      vertex -1.58949 -10 0.337856
    endloop
  endfacet
  facet normal 0 -1 -0
    outer loop
      vertex -0.169858 -10 -1.6161
      vertex -35 -10 -3
      vertex 0.169858 -10 -1.6161
    endloop
  endfacet
  facet normal 0 -1 -0
    outer loop
      vertex -0.502152 -10 -1.54547
      vertex -35 -10 -3
      vertex -0.169858 -10 -1.6161
    endloop
  endfacet
  facet normal 0 -1 -0
    outer loop
      vertex -0.8125 -10 -1.40729
      vertex -35 -10 -3
      vertex -0.502152 -10 -1.54547
    endloop
  endfacet
  facet normal 0 -1 -0
    outer loop
      vertex -1.08734 -10 -1.20761
      vertex -35 -10 -3
      vertex -0.8125 -10 -1.40729
    endloop
  endfacet
  facet normal 0 -1 -0
    outer loop
      vertex -1.31465 -10 -0.955152
      vertex -35 -10 -3
      vertex -1.08734 -10 -1.20761
    endloop
  endfacet
  facet normal 0 -1 -0
    outer loop
      vertex -1.48451 -10 -0.660948
      vertex -35 -10 -3
      vertex -1.31465 -10 -0.955152
    endloop
  endfacet
  facet normal 0 -1 -0
    outer loop
      vertex -1.58949 -10 -0.337857
      vertex -35 -10 -3
      vertex -1.48451 -10 -0.660948
    endloop
  endfacet
  facet normal 0 -1 -0
    outer loop
      vertex -1.625 -10 0
      vertex -35 -10 -3
      vertex -1.58949 -10 -0.337857
    endloop
  endfacet
  facet normal 0 -1 0
    outer loop
      vertex -1.58949 -10 0.337856
      vertex -35 -10 -3
      vertex -1.625 -10 0
    endloop
  endfacet
  facet normal 0 -1 0
    outer loop
      vertex 0.169858 -10 1.6161
      vertex 0 -10 22
      vertex -0.169858 -10 1.6161
    endloop
  endfacet
  facet normal 0 -1 0
    outer loop
      vertex 0.502152 -10 1.54547
      vertex 0 -10 22
      vertex 0.169858 -10 1.6161
    endloop
  endfacet
  facet normal 0 -1 0
    outer loop
      vertex 0.8125 -10 1.40729
      vertex 0 -10 22
      vertex 0.502152 -10 1.54547
    endloop
  endfacet
  facet normal 0 -1 0
    outer loop
      vertex 1.08734 -10 1.20761
      vertex 0 -10 22
      vertex 0.8125 -10 1.40729
    endloop
  endfacet
  facet normal 0 -1 0
    outer loop
      vertex 1.31465 -10 0.955151
      vertex 0 -10 22
      vertex 1.08734 -10 1.20761
    endloop
  endfacet
  facet normal 0 -1 0
    outer loop
      vertex 35 -10 -3
      vertex 1.31465 -10 0.955151
      vertex 1.48451 -10 0.660947
    endloop
  endfacet
  facet normal 0 -1 0
    outer loop
      vertex 35 -10 -3
      vertex 1.48451 -10 0.660947
      vertex 1.58949 -10 0.337856
    endloop
  endfacet
  facet normal 0 -1 0
    outer loop
      vertex 35 -10 -3
      vertex 1.58949 -10 0.337856
      vertex 1.625 -10 0
    endloop
  endfacet
  facet normal 0 -1 0
    outer loop
      vertex 1.31465 -10 0.955151
      vertex 35 -10 -3
      vertex 0 -10 22
    endloop
  endfacet
  facet normal 0 -1 0
    outer loop
      vertex 1.58949 -10 -0.337857
      vertex 35 -10 -3
      vertex 1.625 -10 0
    endloop
  endfacet
  facet normal 0 -1 0
    outer loop
      vertex 1.48451 -10 -0.660948
      vertex 35 -10 -3
      vertex 1.58949 -10 -0.337857
    endloop
  endfacet
  facet normal 0 -1 0
    outer loop
      vertex 1.31465 -10 -0.955152
      vertex 35 -10 -3
      vertex 1.48451 -10 -0.660948
    endloop
  endfacet
  facet normal 0 -1 0
    outer loop
      vertex 1.08734 -10 -1.20761
      vertex 35 -10 -3
      vertex 1.31465 -10 -0.955152
    endloop
  endfacet
  facet normal 0 -1 0
    outer loop
      vertex 0.8125 -10 -1.40729
      vertex 35 -10 -3
      vertex 1.08734 -10 -1.20761
    endloop
  endfacet
  facet normal 0 -1 0
    outer loop
      vertex 0.502152 -10 -1.54547
      vertex 35 -10 -3
      vertex 0.8125 -10 -1.40729
    endloop
  endfacet
  facet normal 0 -1 0
    outer loop
      vertex 0.169858 -10 -1.6161
      vertex 35 -10 -3
      vertex 0.502152 -10 -1.54547
    endloop
  endfacet
  facet normal 0 -1 0
    outer loop
      vertex 35 -10 -3
      vertex 0.169858 -10 -1.6161
      vertex -35 -10 -3
    endloop
  endfacet
  facet normal -0.581192 0 0.813766
    outer loop
      vertex 0 10 22
      vertex -0.5 8 21.6429
      vertex 0 -10 22
    endloop
  endfacet
  facet normal -0.581239 1.77122e-05 0.813733
    outer loop
      vertex 0 10 22
      vertex -32.2 8 -1
      vertex -0.5 8 21.6429
    endloop
  endfacet
  facet normal -0.581238 0 0.813733
    outer loop
      vertex -32.2 8 -1
      vertex -35 10 -3
      vertex -32.2 -8 -1
    endloop
  endfacet
  facet normal -0.581238 8.25989e-16 0.813733
    outer loop
      vertex -35 10 -3
      vertex -32.2 8 -1
      vertex 0 10 22
    endloop
  endfacet
  facet normal -0.581192 0 0.813766
    outer loop
      vertex -0.5 -8 21.6429
      vertex 0 -10 22
      vertex -0.5 8 21.6429
    endloop
  endfacet
  facet normal -0.581239 -1.77122e-05 0.813733
    outer loop
      vertex -32.2 -8 -1
      vertex 0 -10 22
      vertex -0.5 -8 21.6429
    endloop
  endfacet
  facet normal -0.581238 -8.25989e-16 0.813733
    outer loop
      vertex -32.2 -8 -1
      vertex -35 -10 -3
      vertex 0 -10 22
    endloop
  endfacet
  facet normal -0.581238 0 0.813733
    outer loop
      vertex -35 -10 -3
      vertex -32.2 -8 -1
      vertex -35 10 -3
    endloop
  endfacet
  facet normal -1 0 0
    outer loop
      vertex -0.5 -8 11.25
      vertex -0.5 8 21.6429
      vertex -0.5 8 11.25
    endloop
  endfacet
  facet normal -1 -0 0
    outer loop
      vertex -0.5 8 21.6429
      vertex -0.5 -8 11.25
      vertex -0.5 -8 21.6429
    endloop
  endfacet
  facet normal -0 0 1
    outer loop
      vertex -32.2 8 -1
      vertex -8.66667 -8 -1
      vertex -8.66667 8 -1
    endloop
  endfacet
  facet normal 0 0 1
    outer loop
      vertex -8.66667 -8 -1
      vertex -32.2 8 -1
      vertex -32.2 -8 -1
    endloop
  endfacet
  facet normal 0 1 0
    outer loop
      vertex -32.2 -8 -1
      vertex -0.5 -8 11.25
      vertex -8.66667 -8 -1
    endloop
  endfacet
  facet normal 0 1 -0
    outer loop
      vertex -0.5 -8 11.25
      vertex -32.2 -8 -1
      vertex -0.5 -8 21.6429
    endloop
  endfacet
  facet normal 0 -1 0
    outer loop
      vertex -32.2 8 -1
      vertex -0.5 8 11.25
      vertex -0.5 8 21.6429
    endloop
  endfacet
  facet normal 0 -1 0
    outer loop
      vertex -0.5 8 11.25
      vertex -32.2 8 -1
      vertex -8.66667 8 -1
    endloop
  endfacet
  facet normal 1 -0 0
    outer loop
      vertex 0.5 -8 21.6429
      vertex 0.5 8 11.25
      vertex 0.5 8 21.6429
    endloop
  endfacet
  facet normal 1 0 0
    outer loop
      vertex 0.5 8 11.25
      vertex 0.5 -8 21.6429
      vertex 0.5 -8 11.25
    endloop
  endfacet
  facet normal 0 -1 0
    outer loop
      vertex 32.2 8 -1
      vertex 0.5 8 11.25
      vertex 8.66667 8 -1
    endloop
  endfacet
  facet normal 0 -1 0
    outer loop
      vertex 0.5 8 11.25
      vertex 32.2 8 -1
      vertex 0.5 8 21.6429
    endloop
  endfacet
  facet normal -0 0 1
    outer loop
      vertex 8.66667 8 -1
      vertex 32.2 -8 -1
      vertex 32.2 8 -1
    endloop
  endfacet
  facet normal 0 0 1
    outer loop
      vertex 32.2 -8 -1
      vertex 8.66667 8 -1
      vertex 8.66667 -8 -1
    endloop
  endfacet
  facet normal 0 1 0
    outer loop
      vertex 32.2 -8 -1
      vertex 0.5 -8 11.25
      vertex 0.5 -8 21.6429
    endloop
  endfacet
  facet normal 0 1 0
    outer loop
      vertex 0.5 -8 11.25
      vertex 32.2 -8 -1
      vertex 8.66667 -8 -1
    endloop
  endfacet
  facet normal 0.83205 -0 0.5547
    outer loop
      vertex 0.5 -8 11.25
      vertex 8.66667 8 -1
      vertex 0.5 8 11.25
    endloop
  endfacet
  facet normal 0.83205 0 0.5547
    outer loop
      vertex 8.66667 8 -1
      vertex 0.5 -8 11.25
      vertex 8.66667 -8 -1
    endloop
  endfacet
  facet normal -0.83205 0 0.5547
    outer loop
      vertex -8.66667 -8 -1
      vertex -0.5 8 11.25
      vertex -8.66667 8 -1
    endloop
  endfacet
  facet normal -0.83205 0 0.5547
    outer loop
      vertex -0.5 8 11.25
      vertex -8.66667 -8 -1
      vertex -0.5 -8 11.25
    endloop
  endfacet
  facet normal -0.994522 0 -0.104528
    outer loop
      vertex 1.625 -10 0
      vertex 1.58949 10 0.337856
      vertex 1.625 10 0
    endloop
  endfacet
  facet normal -0.994522 -0 -0.104528
    outer loop
      vertex 1.58949 10 0.337856
      vertex 1.625 -10 0
      vertex 1.58949 -10 0.337856
    endloop
  endfacet
  facet normal -0.951055 0 -0.309021
    outer loop
      vertex 1.58949 -10 0.337856
      vertex 1.48451 10 0.660947
      vertex 1.58949 10 0.337856
    endloop
  endfacet
  facet normal -0.951055 -0 -0.309021
    outer loop
      vertex 1.48451 10 0.660947
      vertex 1.58949 -10 0.337856
      vertex 1.48451 -10 0.660947
    endloop
  endfacet
  facet normal 0.207908 0 -0.978148
    outer loop
      vertex -0.502152 -10 1.54547
      vertex -0.169858 10 1.6161
      vertex -0.169858 -10 1.6161
    endloop
  endfacet
  facet normal 0.207908 0 -0.978148
    outer loop
      vertex -0.169858 10 1.6161
      vertex -0.502152 -10 1.54547
      vertex -0.502152 10 1.54547
    endloop
  endfacet
  facet normal -0.58778 0 -0.809021
    outer loop
      vertex 0.8125 -10 1.40729
      vertex 1.08734 10 1.20761
      vertex 1.08734 -10 1.20761
    endloop
  endfacet
  facet normal -0.58778 0 -0.809021
    outer loop
      vertex 1.08734 10 1.20761
      vertex 0.8125 -10 1.40729
      vertex 0.8125 10 1.40729
    endloop
  endfacet
  facet normal 0.743152 0 -0.669122
    outer loop
      vertex -1.08734 -10 1.20761
      vertex -1.31465 10 0.955151
      vertex -1.08734 10 1.20761
    endloop
  endfacet
  facet normal 0.743152 0 -0.669122
    outer loop
      vertex -1.31465 10 0.955151
      vertex -1.08734 -10 1.20761
      vertex -1.31465 -10 0.955151
    endloop
  endfacet
  facet normal 0.58778 0 -0.809021
    outer loop
      vertex -1.08734 -10 1.20761
      vertex -0.8125 10 1.40729
      vertex -0.8125 -10 1.40729
    endloop
  endfacet
  facet normal 0.58778 0 -0.809021
    outer loop
      vertex -0.8125 10 1.40729
      vertex -1.08734 -10 1.20761
      vertex -1.08734 10 1.20761
    endloop
  endfacet
  facet normal -0.866024 0 -0.500003
    outer loop
      vertex 1.48451 -10 0.660947
      vertex 1.31465 10 0.955151
      vertex 1.48451 10 0.660947
    endloop
  endfacet
  facet normal -0.866024 -0 -0.500003
    outer loop
      vertex 1.31465 10 0.955151
      vertex 1.48451 -10 0.660947
      vertex 1.31465 -10 0.955151
    endloop
  endfacet
  facet normal -0.207908 0 -0.978148
    outer loop
      vertex 0.169858 -10 1.6161
      vertex 0.502152 10 1.54547
      vertex 0.502152 -10 1.54547
    endloop
  endfacet
  facet normal -0.207908 0 -0.978148
    outer loop
      vertex 0.502152 10 1.54547
      vertex 0.169858 -10 1.6161
      vertex 0.169858 10 1.6161
    endloop
  endfacet
  facet normal -0.406747 0 -0.913541
    outer loop
      vertex 0.502152 -10 1.54547
      vertex 0.8125 10 1.40729
      vertex 0.8125 -10 1.40729
    endloop
  endfacet
  facet normal -0.406747 0 -0.913541
    outer loop
      vertex 0.8125 10 1.40729
      vertex 0.502152 -10 1.54547
      vertex 0.502152 10 1.54547
    endloop
  endfacet
  facet normal 0.951055 0 -0.309021
    outer loop
      vertex -1.48451 -10 0.660947
      vertex -1.58949 10 0.337856
      vertex -1.48451 10 0.660947
    endloop
  endfacet
  facet normal 0.951055 0 -0.309021
    outer loop
      vertex -1.58949 10 0.337856
      vertex -1.48451 -10 0.660947
      vertex -1.58949 -10 0.337856
    endloop
  endfacet
  facet normal 0.866024 0 -0.500003
    outer loop
      vertex -1.31465 -10 0.955151
      vertex -1.48451 10 0.660947
      vertex -1.31465 10 0.955151
    endloop
  endfacet
  facet normal 0.866024 0 -0.500003
    outer loop
      vertex -1.48451 10 0.660947
      vertex -1.31465 -10 0.955151
      vertex -1.48451 -10 0.660947
    endloop
  endfacet
  facet normal 0.406747 0 -0.913541
    outer loop
      vertex -0.8125 -10 1.40729
      vertex -0.502152 10 1.54547
      vertex -0.502152 -10 1.54547
    endloop
  endfacet
  facet normal 0.406747 0 -0.913541
    outer loop
      vertex -0.502152 10 1.54547
      vertex -0.8125 -10 1.40729
      vertex -0.8125 10 1.40729
    endloop
  endfacet
  facet normal -0.994522 0 0.104528
    outer loop
      vertex 1.58949 -10 -0.337857
      vertex 1.625 10 0
      vertex 1.58949 10 -0.337857
    endloop
  endfacet
  facet normal -0.994522 0 0.104528
    outer loop
      vertex 1.625 10 0
      vertex 1.58949 -10 -0.337857
      vertex 1.625 -10 0
    endloop
  endfacet
  facet normal -0.207908 0 0.978148
    outer loop
      vertex 0.169858 10 -1.6161
      vertex 0.502152 -10 -1.54547
      vertex 0.502152 10 -1.54547
    endloop
  endfacet
  facet normal -0.207908 0 0.978148
    outer loop
      vertex 0.502152 -10 -1.54547
      vertex 0.169858 10 -1.6161
      vertex 0.169858 -10 -1.6161
    endloop
  endfacet
  facet normal -0.58778 0 0.809021
    outer loop
      vertex 0.8125 10 -1.40729
      vertex 1.08734 -10 -1.20761
      vertex 1.08734 10 -1.20761
    endloop
  endfacet
  facet normal -0.58778 0 0.809021
    outer loop
      vertex 1.08734 -10 -1.20761
      vertex 0.8125 10 -1.40729
      vertex 0.8125 -10 -1.40729
    endloop
  endfacet
  facet normal -0.743152 0 -0.669122
    outer loop
      vertex 1.31465 -10 0.955151
      vertex 1.08734 10 1.20761
      vertex 1.31465 10 0.955151
    endloop
  endfacet
  facet normal -0.743152 -0 -0.669122
    outer loop
      vertex 1.08734 10 1.20761
      vertex 1.31465 -10 0.955151
      vertex 1.08734 -10 1.20761
    endloop
  endfacet
  facet normal 0 0 -1
    outer loop
      vertex -0.169858 -10 1.6161
      vertex 0.169858 10 1.6161
      vertex 0.169858 -10 1.6161
    endloop
  endfacet
  facet normal -0 0 -1
    outer loop
      vertex 0.169858 10 1.6161
      vertex -0.169858 -10 1.6161
      vertex -0.169858 10 1.6161
    endloop
  endfacet
  facet normal 0.994522 0 -0.104528
    outer loop
      vertex -1.58949 -10 0.337856
      vertex -1.625 10 0
      vertex -1.58949 10 0.337856
    endloop
  endfacet
  facet normal 0.994522 0 -0.104528
    outer loop
      vertex -1.625 10 0
      vertex -1.58949 -10 0.337856
      vertex -1.625 -10 0
    endloop
  endfacet
  facet normal 0.994522 -0 0.104528
    outer loop
      vertex -1.625 -10 0
      vertex -1.58949 10 -0.337857
      vertex -1.625 10 0
    endloop
  endfacet
  facet normal 0.994522 0 0.104528
    outer loop
      vertex -1.58949 10 -0.337857
      vertex -1.625 -10 0
      vertex -1.58949 -10 -0.337857
    endloop
  endfacet
  facet normal -0.743151 0 0.669124
    outer loop
      vertex 1.08734 -10 -1.20761
      vertex 1.31465 10 -0.955152
      vertex 1.08734 10 -1.20761
    endloop
  endfacet
  facet normal -0.743151 0 0.669124
    outer loop
      vertex 1.31465 10 -0.955152
      vertex 1.08734 -10 -1.20761
      vertex 1.31465 -10 -0.955152
    endloop
  endfacet
  facet normal 0.58778 0 0.809021
    outer loop
      vertex -1.08734 10 -1.20761
      vertex -0.8125 -10 -1.40729
      vertex -0.8125 10 -1.40729
    endloop
  endfacet
  facet normal 0.58778 0 0.809021
    outer loop
      vertex -0.8125 -10 -1.40729
      vertex -1.08734 10 -1.20761
      vertex -1.08734 -10 -1.20761
    endloop
  endfacet
  facet normal 0.743151 -0 0.669124
    outer loop
      vertex -1.31465 -10 -0.955152
      vertex -1.08734 10 -1.20761
      vertex -1.31465 10 -0.955152
    endloop
  endfacet
  facet normal 0.743151 0 0.669124
    outer loop
      vertex -1.08734 10 -1.20761
      vertex -1.31465 -10 -0.955152
      vertex -1.08734 -10 -1.20761
    endloop
  endfacet
  facet normal 0.866024 -0 0.500003
    outer loop
      vertex -1.48451 -10 -0.660948
      vertex -1.31465 10 -0.955152
      vertex -1.48451 10 -0.660948
    endloop
  endfacet
  facet normal 0.866024 0 0.500003
    outer loop
      vertex -1.31465 10 -0.955152
      vertex -1.48451 -10 -0.660948
      vertex -1.31465 -10 -0.955152
    endloop
  endfacet
  facet normal 0.951055 -0 0.309021
    outer loop
      vertex -1.58949 -10 -0.337857
      vertex -1.48451 10 -0.660948
      vertex -1.58949 10 -0.337857
    endloop
  endfacet
  facet normal 0.951055 0 0.309021
    outer loop
      vertex -1.48451 10 -0.660948
      vertex -1.58949 -10 -0.337857
      vertex -1.48451 -10 -0.660948
    endloop
  endfacet
  facet normal -0.406747 0 0.913541
    outer loop
      vertex 0.502152 10 -1.54547
      vertex 0.8125 -10 -1.40729
      vertex 0.8125 10 -1.40729
    endloop
  endfacet
  facet normal -0.406747 0 0.913541
    outer loop
      vertex 0.8125 -10 -1.40729
      vertex 0.502152 10 -1.54547
      vertex 0.502152 -10 -1.54547
    endloop
  endfacet
  facet normal -0.866024 0 0.500003
    outer loop
      vertex 1.31465 -10 -0.955152
      vertex 1.48451 10 -0.660948
      vertex 1.31465 10 -0.955152
    endloop
  endfacet
  facet normal -0.866024 0 0.500003
    outer loop
      vertex 1.48451 10 -0.660948
      vertex 1.31465 -10 -0.955152
      vertex 1.48451 -10 -0.660948
    endloop
  endfacet
  facet normal -0.951055 0 0.309021
    outer loop
      vertex 1.48451 -10 -0.660948
      vertex 1.58949 10 -0.337857
      vertex 1.48451 10 -0.660948
    endloop
  endfacet
  facet normal -0.951055 0 0.309021
    outer loop
      vertex 1.58949 10 -0.337857
      vertex 1.48451 -10 -0.660948
      vertex 1.58949 -10 -0.337857
    endloop
  endfacet
  facet normal 0.406747 0 0.913541
    outer loop
      vertex -0.8125 10 -1.40729
      vertex -0.502152 -10 -1.54547
      vertex -0.502152 10 -1.54547
    endloop
  endfacet
  facet normal 0.406747 0 0.913541
    outer loop
      vertex -0.502152 -10 -1.54547
      vertex -0.8125 10 -1.40729
      vertex -0.8125 -10 -1.40729
    endloop
  endfacet
  facet normal 0.207908 0 0.978148
    outer loop
      vertex -0.502152 10 -1.54547
      vertex -0.169858 -10 -1.6161
      vertex -0.169858 10 -1.6161
    endloop
  endfacet
  facet normal 0.207908 0 0.978148
    outer loop
      vertex -0.169858 -10 -1.6161
      vertex -0.502152 10 -1.54547
      vertex -0.502152 -10 -1.54547
    endloop
  endfacet
  facet normal -0 0 1
    outer loop
      vertex -0.169858 10 -1.6161
      vertex 0.169858 -10 -1.6161
      vertex 0.169858 10 -1.6161
    endloop
  endfacet
  facet normal 0 0 1
    outer loop
      vertex 0.169858 -10 -1.6161
      vertex -0.169858 10 -1.6161
      vertex -0.169858 -10 -1.6161
    endloop
  endfacet
endsolid OpenSCAD_Model
